<svg width="103" height="24" viewBox="0 0 103 24" fill="none" xmlns="http://www.w3.org/2000/svg">
<path d="M14.0583 16.586C13.8456 16.1357 13.5329 15.7388 13.1471 15.4209C12.8427 15.1641 12.4903 14.9607 12.1045 14.8126C10.8263 14.3288 9.03512 13.9832 7.5463 13.7759C6.24305 13.5982 5.32348 13.4046 4.78551 13.1953C4.2517 12.984 3.98271 12.5812 3.98271 11.9828C3.98271 10.8098 5.00862 10.1404 7.05628 10.2213C9.08099 10.3023 10.6282 10.9006 11.9857 11.9038C12.2192 12.1072 12.5216 12.2356 12.7551 11.9038L14.3232 9.95868C14.5567 9.66839 14.5338 9.4255 14.2523 9.22605C12.459 7.65216 10.0944 6.86621 7.16262 6.86621C5.13373 6.86621 3.43639 7.32238 2.06017 8.22682C0.686027 9.13521 0 10.4543 0 12.1803C0 12.9564 0.139708 13.6416 0.419123 14.24C0.419123 14.2439 0.423293 14.2479 0.425378 14.2558C0.638068 14.706 0.950846 15.101 1.33452 15.4209C1.64104 15.6776 1.99344 15.881 2.37711 16.0271C3.65533 16.5109 5.44651 16.8585 6.93742 17.0658C8.24066 17.2416 9.15815 17.4351 9.69821 17.6464C10.232 17.8577 10.501 18.2606 10.501 18.8609C10.501 20.0339 9.47509 20.7033 7.42744 20.6204C5.40272 20.5394 3.85551 19.9411 2.49806 18.9399C2.26451 18.7365 1.96008 18.6081 1.72862 18.9399L0.160559 20.883C-0.0729816 21.1753 -0.0500445 21.4162 0.231456 21.6157C2.02472 23.1896 4.38932 23.9755 7.3211 23.9755C9.34998 23.9755 11.0473 23.5193 12.4235 22.6129C13.7977 21.7065 14.4837 20.3854 14.4837 18.6595C14.4837 17.8834 14.344 17.1981 14.0646 16.5978C14.0646 16.5939 14.0604 16.5899 14.0583 16.584V16.586Z" fill="#821B71"/>
<path d="M102.575 16.586C102.362 16.1357 102.049 15.7388 101.663 15.4209C101.359 15.1641 101.007 14.9607 100.621 14.8126C99.3427 14.3288 97.5515 13.9832 96.0627 13.7759C94.7594 13.5982 93.8398 13.4046 93.3019 13.1953C92.7681 12.984 92.4991 12.5812 92.4991 11.9828C92.4991 10.8098 93.525 10.1404 95.5726 10.2213C97.5974 10.3023 99.1446 10.9006 100.502 11.9038C100.736 12.1072 101.038 12.2356 101.271 11.9038L102.84 9.95868C103.073 9.66839 103.05 9.4255 102.769 9.22605C100.975 7.65216 98.6108 6.86621 95.679 6.86621C93.6501 6.86621 91.9527 7.32238 90.5765 8.22682C89.2024 9.13521 88.5164 10.4543 88.5164 12.1803C88.5164 12.9564 88.6561 13.6416 88.9355 14.24C88.9355 14.2439 88.9397 14.2479 88.9417 14.2558C89.1544 14.706 89.4672 15.101 89.8509 15.4209C90.1574 15.6776 90.5098 15.881 90.8935 16.0271C92.1717 16.5109 93.9629 16.8585 95.4538 17.0658C96.757 17.2416 97.6745 17.4351 98.2146 17.6464C98.7484 17.8577 99.0174 18.2606 99.0174 18.8609C99.0174 20.0339 97.9915 20.7033 95.9438 20.6204C93.9191 20.5394 92.3719 19.9411 91.0144 18.9399C90.7809 18.7365 90.4764 18.6081 90.245 18.9399L88.6769 20.883C88.4434 21.1753 88.4663 21.4162 88.7478 21.6157C90.5411 23.1896 92.9057 23.9755 95.8375 23.9755C97.8663 23.9755 99.5637 23.5193 100.94 22.6129C102.314 21.7065 103 20.3854 103 18.6595C103 17.8834 102.86 17.1981 102.581 16.5978C102.581 16.5939 102.577 16.5899 102.575 16.584V16.586Z" fill="#821B71"/>
<path d="M39.3871 0.000488281H36.6513C36.3323 0.000488281 36.1738 0.14662 36.1738 0.440859V23.5574C36.1738 23.8516 36.3323 23.9977 36.6513 23.9977H39.3871C39.7061 23.9977 39.8667 23.8516 39.8667 23.5574V0.440859C39.8667 0.14662 39.7061 0.000488281 39.3871 0.000488281Z" fill="#821B71"/>
<path d="M66.3049 0.000488281H63.5691C63.2501 0.000488281 63.0895 0.148595 63.0895 0.440859V8.52354C61.5611 7.4473 59.7741 6.90819 57.7327 6.90819C55.1908 6.90819 53.0514 7.74154 51.3186 9.40626C49.5837 11.073 48.7163 13.0833 48.7163 15.4372C48.7163 17.7911 49.5837 19.8626 51.3186 21.5174C53.0514 23.1723 55.1908 23.9997 57.7327 23.9997C59.7845 23.9997 61.5694 23.4685 63.0895 22.41C63.4711 22.1454 63.8339 21.8472 64.1801 21.5174C65.9149 19.8626 66.7824 17.8365 66.7824 15.4372V0.440859C66.7824 0.148595 66.6218 0.000488281 66.3028 0.000488281H66.3049ZM61.3859 19.1675C60.4226 20.145 59.2069 20.6328 57.7347 20.6328C56.2626 20.6328 55.0511 20.143 54.1003 19.1675C53.1494 18.19 52.674 16.9459 52.674 15.4372C52.674 13.9285 53.1494 12.712 54.1003 11.7226C55.0511 10.7333 56.2605 10.2396 57.7347 10.2396C59.209 10.2396 60.4226 10.7392 61.3859 11.7404C62.3472 12.7396 62.8289 13.9719 62.8289 15.4372C62.8289 16.9024 62.3472 18.192 61.3859 19.1675Z" fill="#821B71"/>
<path d="M45.6574 6.92822H42.9216C42.6026 6.92822 42.4441 7.07436 42.4441 7.36859V23.5596C42.4441 23.8539 42.6026 24 42.9216 24H45.6574C45.9764 24 46.137 23.8539 46.137 23.5596V7.36859C46.137 7.07633 45.9764 6.92822 45.6574 6.92822Z" fill="#821B71"/>
<path d="M84.2812 9.13334C82.5921 7.46665 80.484 6.6333 77.9568 6.6333C75.4295 6.6333 73.1588 7.48442 71.3697 9.18271C69.5785 10.883 68.686 12.9486 68.686 15.3795C68.686 17.8104 69.5868 19.8484 71.3884 21.4914C73.19 23.1344 75.4066 23.9559 78.0339 23.9559C81.0616 23.9559 83.6264 23.01 85.7283 21.1181C85.9535 20.8713 85.9535 20.6462 85.7283 20.4428L83.8891 18.6201C83.6639 18.3713 83.4137 18.3713 83.1385 18.6201C81.8373 19.9491 80.1733 20.6126 78.1465 20.6126C76.7203 20.6126 75.5129 20.19 74.5225 19.3468C73.5341 18.5016 72.9648 17.4056 72.8147 16.0549H86.2162C86.5665 16.0549 86.7417 15.8969 86.7417 15.5809C86.7917 12.9486 85.9722 10.7981 84.2832 9.13137L84.2812 9.13334ZM72.9628 13.7938C73.263 12.6445 73.8594 11.7223 74.7456 11.0232C75.6339 10.3261 76.7036 9.97657 77.9547 9.97657C79.1307 9.97657 80.1504 10.332 81.0137 11.041C81.8769 11.7499 82.4212 12.6682 82.6464 13.7938H72.9607H72.9628Z" fill="#821B71"/>
<path d="M25.3059 23.9568C22.764 23.9568 20.6267 23.1293 18.8939 21.4745C17.1591 19.8196 16.2937 17.7935 16.2937 15.3942C16.2937 12.9949 17.1611 11.03 18.8939 9.3633C20.6267 7.69661 22.764 6.86523 25.3059 6.86523C27.8477 6.86523 29.9913 7.69858 31.7366 9.3633C33.4819 11.03 34.3556 13.0383 34.3556 15.3942C34.3556 17.7501 33.4882 19.8196 31.7554 21.4745C30.0205 23.1293 27.8728 23.9568 25.308 23.9568H25.3059ZM21.6714 19.1265C22.6202 20.104 23.8317 20.5918 25.3059 20.5918C26.7801 20.5918 27.9958 20.104 28.957 19.1265C29.9183 18.149 30.4 16.9049 30.4 15.3962C30.4 13.8875 29.9183 12.6967 28.957 11.6975C27.9958 10.6982 26.778 10.1986 25.3059 10.1986C23.8337 10.1986 22.6222 10.6923 21.6714 11.6817C20.7206 12.671 20.2451 13.9092 20.2451 15.3962C20.2451 16.8832 20.7206 18.151 21.6714 19.1265Z" fill="#821B71"/>
<path d="M31.6448 0C33.1399 0 34.3556 1.14931 34.3556 2.56719V2.59088C34.3556 4.00678 33.142 5.15807 31.6448 5.15807H28.9341V2.56916C28.9341 1.15326 30.1477 0.00197476 31.6448 0.00197476V0Z" fill="#821B71"/>
<path d="M47.0002 2.56767C47.0002 1.14986 45.787 0.000488281 44.2905 0.000488281C42.794 0.000488281 41.5808 1.14986 41.5808 2.56767V2.5894C41.5808 4.00721 42.794 5.15658 44.2905 5.15658C45.787 5.15658 47.0002 4.00721 47.0002 2.5894V2.56767Z" fill="#821B71"/>
</svg>
